HIERARCHY
ROOT Hips
{
	OFFSET 0.00 0.00 0.00
	CHANNELS 6 Xposition Yposition Zposition Xrotation Yrotation Zrotation
	JOINT LeftUpLeg
	{
		OFFSET 3.34202 0.00000 0.00000
		CHANNELS 3 Xrotation Yrotation Zrotation
		JOINT LeftLeg
		{
			OFFSET 0.00000 -16.59631 0.00000
			CHANNELS 3 Xrotation Yrotation Zrotation
			JOINT LeftFoot
			{
				OFFSET 0.00000 -16.13662 0.00000
				CHANNELS 3 Xrotation Yrotation Zrotation
				JOINT LeftToeBase
				{
					OFFSET 0.00000 -1.70046 6.34620
					CHANNELS 3 Xrotation Yrotation Zrotation
					End Site
					{
						OFFSET 0.00000 0.00000 2.95275
					}
				}
			}
		}
	}
	JOINT RightUpLeg
	{
		OFFSET -3.34202 0.00000 0.00000
		CHANNELS 3 Xrotation Yrotation Zrotation
		JOINT RightLeg
		{
			OFFSET 0.00000 -16.59631 0.00000
			CHANNELS 3 Xrotation Yrotation Zrotation
			JOINT RightFoot
			{
				OFFSET 0.00000 -16.13662 0.00000
				CHANNELS 3 Xrotation Yrotation Zrotation
				JOINT RightToeBase
				{
					OFFSET 0.00000 -1.70046 6.34620
					CHANNELS 3 Xrotation Yrotation Zrotation
					End Site
					{
						OFFSET 0.00000 0.00000 2.95275
					}
				}
			}
		}
	}
	JOINT Spine
	{
		OFFSET 0.00000 0.03937 0.00000
		CHANNELS 3 Xrotation Yrotation Zrotation
		JOINT Spine1
		{
			OFFSET 0.00000 9.25793 0.00000
			CHANNELS 3 Xrotation Yrotation Zrotation
			JOINT Neck
			{
				OFFSET 0.00000 8.81471 0.00000
				CHANNELS 3 Xrotation Yrotation Zrotation
				JOINT Head
				{
					OFFSET 0.00000 6.89495 0.00000
					CHANNELS 3 Xrotation Yrotation Zrotation
					End Site
					{
						OFFSET 0.00000 4.52755 0.00000
					}
				}
			}
			JOINT LeftShoulder
			{
				OFFSET 0.00000 8.81471 0.00000
				CHANNELS 3 Xrotation Yrotation Zrotation
				JOINT LeftArm
				{
					OFFSET 7.31164 -0.00003 0.00000
					CHANNELS 3 Xrotation Yrotation Zrotation
					JOINT LeftForeArm
					{
						OFFSET 10.81844 -0.00004 0.00000
						CHANNELS 3 Xrotation Yrotation Zrotation
						JOINT LeftHand
						{
							OFFSET 10.19478 -0.00004 0.00000
							CHANNELS 3 Xrotation Yrotation Zrotation
							JOINT LeftHandThumb
							{
								OFFSET 0.00000 0.00000 0.00000
								CHANNELS 3 Xrotation Yrotation Zrotation
								End Site
								{
									OFFSET 0.00000 0.00000 3.93700
								}
							}
							JOINT L_Wrist_End
							{
								OFFSET 3.93700 -0.00001 0.00000
								CHANNELS 3 Xrotation Yrotation Zrotation
							}
						}
					}
				}
			}
			JOINT RightShoulder
			{
				OFFSET 0.00000 8.81471 0.00000
				CHANNELS 3 Xrotation Yrotation Zrotation
				JOINT RightArm
				{
					OFFSET -7.31164 -0.00003 0.00000
					CHANNELS 3 Xrotation Yrotation Zrotation
					JOINT RightForeArm
					{
						OFFSET -10.81844 -0.00004 0.00000
						CHANNELS 3 Xrotation Yrotation Zrotation
						JOINT RightHand
						{
							OFFSET -10.19478 -0.00004 0.00000
							CHANNELS 3 Xrotation Yrotation Zrotation
							JOINT RightHandThumb
							{
								OFFSET 0.00000 0.00000 0.00000
								CHANNELS 3 Xrotation Yrotation Zrotation
								End Site
								{
									OFFSET 0.00000 0.00000 3.93700
								}
							}
							JOINT R_Wrist_End
							{
								OFFSET -5.39369 -0.00002 0.00000
								CHANNELS 3 Xrotation Yrotation Zrotation
							}
						}
					}
				}
			}
		}
	}
}
MOTION
Frames: 9
Frame Time: 0.008333
 -3.3120 34.2192 6.2308 10.9266 9.3616 -0.6197 -31.1955 14.4523 1.8784 6.1157 0.0000 0.0000 5.7162 4.4423 -1.9045 -15.1839 0.0000 0.0000 1.2523 -18.4250 -0.0930 12.7425 0.0000 -0.0000 -20.0007 -2.9405 1.0903 -15.1142 0.0000 0.0000 -6.0868 6.6908 0.6791 1.5896 0.9688 -0.8207 11.1373 1.2889 -2.9546 -14.2517 -10.2819 1.1134 1.1965 14.0806 5.2839 15.0654 -3.2920 -85.1706 -0.0001 -16.9978 -0.0000 2.6772 1.4778 4.7982 0.0000 0.0000 0.0000 0.0000 0.0000 0.0000 -14.3422 1.8749 -6.6930 -1.0098 36.4922 70.9074 -0.0005 67.4144 0.0003 8.0667 -2.2411 -5.7271 0.0000 0.0000 -0.0000 0.0000 0.0000 -0.0000
 -3.2311 34.2082 6.4155 11.0426 9.3892 -0.7442 -31.1437 14.5502 1.8209 6.1675 0.0000 0.0000 4.9961 4.8146 -1.9833 -15.1769 0.0000 0.0000 1.2673 -18.4592 -0.1572 13.1397 -0.0000 0.0000 -19.9106 -2.9385 1.3203 -15.4140 0.0000 -0.0000 -6.0903 6.7329 0.6938 1.4955 1.0066 -0.8389 11.0811 1.3327 -2.9951 -14.1768 -10.3483 1.1698 1.2007 14.1224 5.3513 15.1975 -3.1850 -85.1351 -0.0001 -16.4827 -0.0000 3.0900 1.6468 4.8440 0.0000 -0.0000 0.0000 0.0000 -0.0000 0.0000 -14.4926 1.9659 -6.7325 -1.2105 36.4891 70.9666 -0.0005 67.5354 0.0003 8.0987 -2.1785 -5.7282 -0.0000 -0.0000 0.0000 -0.0000 -0.0000 0.0000
 -3.1468 34.1989 6.6051 11.1508 9.4360 -0.8552 -31.0889 14.5677 1.7584 6.3573 0.0000 0.0000 4.3672 5.1421 -2.2512 -15.2274 0.0000 0.0000 1.2896 -18.4888 -0.2417 13.5379 -0.0000 0.0000 -19.7635 -2.9325 1.5038 -15.7990 0.0000 -0.0000 -6.1028 6.7686 0.6919 1.4111 1.0402 -0.8707 11.0526 1.3495 -2.9951 -14.1413 -10.3565 1.2080 1.2075 14.1135 5.4176 15.3285 -3.0271 -85.0934 -0.0001 -15.9963 -0.0000 3.2201 1.7338 4.9486 -0.0000 -0.0000 0.0000 -0.0000 -0.0000 0.0000 -14.6019 2.0643 -6.7416 -1.3825 36.4435 71.0076 -0.0005 67.6459 0.0003 8.1224 -2.2001 -5.8665 -0.0000 0.0000 0.0000 -0.0000 0.0000 0.0000
 -3.0603 34.1942 6.8006 11.2537 9.5446 -0.9042 -31.0114 14.3829 1.6315 6.6513 0.0000 0.0000 4.0842 5.2916 -2.3467 -15.1988 0.0000 -0.0000 1.3025 -18.6140 -0.4006 13.9581 0.0000 -0.0000 -19.6085 -2.8911 1.7114 -16.2158 0.0000 0.0000 -6.1249 6.7640 0.6540 1.3452 1.0354 -0.9848 11.0856 1.3431 -2.9590 -14.2000 -10.3284 1.3044 1.1826 14.0253 5.5022 15.4978 -2.6546 -85.0472 -0.0001 -15.5559 -0.0000 3.3211 1.8392 4.8992 0.0000 -0.0000 -0.0000 0.0000 -0.0000 -0.0000 -14.6660 2.1842 -6.6827 -1.5629 36.3425 71.0588 -0.0005 67.7354 0.0003 8.1332 -2.3110 -5.9973 0.0000 0.0000 0.0000 0.0000 0.0000 0.0000
 -2.9650 34.1903 6.9940 11.3715 9.5661 -0.8989 -30.9406 14.1591 1.4871 7.0161 0.0000 0.0000 4.0472 5.4563 -2.1338 -15.1308 -0.0000 -0.0000 1.1984 -18.6657 -0.6619 14.4967 -0.0000 0.0000 -19.4446 -2.8470 1.8611 -16.7531 0.0000 0.0000 -6.1312 6.7952 0.5964 1.2802 1.0670 -1.1273 10.9654 1.3554 -2.9155 -14.0558 -10.3165 1.3598 1.1101 13.9427 5.5900 15.7029 -2.3475 -85.0037 -0.0001 -15.1619 -0.0000 3.3341 1.9313 4.9567 0.0000 -0.0000 0.0000 0.0000 -0.0000 0.0000 -14.7199 2.2469 -6.6511 -1.7919 36.2719 71.1474 -0.0005 67.7711 0.0003 8.2042 -2.3505 -6.0174 0.0000 0.0000 -0.0000 0.0000 0.0000 -0.0000
 -2.8686 34.1874 7.1945 11.4689 9.5848 -0.9774 -30.8915 13.9198 1.4428 7.4671 -0.0000 -0.0000 4.0693 5.6180 -2.2859 -15.1211 0.0000 -0.0000 1.1432 -18.6735 -0.8299 15.0508 0.0000 -0.0000 -19.2419 -2.8123 2.0659 -17.2394 0.0000 -0.0000 -6.1354 6.8139 0.5560 1.2185 1.0888 -1.1684 10.8921 1.3938 -2.9007 -14.0418 -10.3110 1.4165 1.0996 13.9412 5.6496 15.7890 -2.2043 -84.9672 -0.0001 -14.7010 -0.0000 3.3464 1.9649 5.1015 -0.0000 0.0000 -0.0000 -0.0000 0.0000 -0.0000 -14.8166 2.2823 -6.6259 -1.9558 36.2701 71.2062 -0.0005 67.7469 0.0003 8.3173 -2.4047 -6.1203 -0.0000 -0.0000 0.0000 -0.0000 -0.0000 0.0000
 -2.7556 34.1837 7.4065 11.5425 9.6511 -0.8898 -30.6660 13.4906 1.1787 7.7577 0.0000 0.0000 4.2306 6.0218 -2.4817 -15.1138 0.0000 -0.0000 1.0371 -18.8456 -1.2353 15.6797 -0.0000 0.0000 -19.0805 -2.6495 2.4893 -17.8266 0.0000 -0.0000 -6.1758 6.8151 0.4664 1.2294 1.0951 -1.3790 10.8720 1.3877 -2.8374 -14.1008 -10.2588 1.5185 1.0182 13.8274 5.7404 15.9906 -1.8625 -84.9267 -0.0001 -14.3542 -0.0000 3.3618 2.0360 5.1497 -0.0000 0.0000 0.0000 -0.0000 0.0000 0.0000 -14.7873 2.3434 -6.5621 -2.1734 36.1273 71.2962 -0.0005 67.7621 0.0003 8.4732 -2.5041 -6.1184 -0.0000 0.0000 0.0000 -0.0000 0.0000 0.0000
 -2.6412 34.1813 7.6254 11.5934 9.6212 -0.8193 -30.3911 13.1387 0.9670 7.9595 -0.0000 0.0000 4.3501 6.4427 -2.6619 -15.0327 0.0000 -0.0000 0.9231 -18.8559 -1.6163 16.3662 -0.0000 0.0000 -18.8698 -2.5410 2.7674 -18.4015 0.0000 0.0000 -6.2059 6.8618 0.3806 1.2604 1.1480 -1.5589 10.7586 1.3789 -2.7662 -14.0367 -10.2383 1.5902 0.9536 13.7687 5.8283 16.1011 -1.7173 -84.8758 -0.0001 -13.9417 -0.0000 3.2361 2.0194 5.2960 -0.0000 0.0000 -0.0000 -0.0000 0.0000 -0.0000 -14.8098 2.3125 -6.5267 -2.3726 36.1077 71.4101 -0.0005 67.6853 0.0003 8.5932 -2.5401 -6.1218 0.0000 -0.0000 0.0000 0.0000 -0.0000 0.0000
 -2.5232 34.1809 7.8476 11.6507 9.6031 -0.7398 -30.0948 12.8924 0.7016 8.0720 0.0000 0.0000 4.4662 6.8380 -2.3455 -14.9562 -0.0000 -0.0000 0.7791 -18.8466 -2.0184 17.0939 0.0000 0.0000 -18.6217 -2.4665 3.0128 -19.0852 0.0000 0.0000 -6.2402 6.8688 0.2793 1.2621 1.1644 -1.7372 10.6913 1.4160 -2.7126 -14.0070 -10.1909 1.6826 0.9317 13.7147 5.8947 16.2065 -1.4233 -84.8334 -0.0001 -13.6200 -0.0000 3.3417 2.0959 5.3562 0.0000 -0.0000 -0.0000 0.0000 -0.0000 -0.0000 -14.8448 2.3846 -6.4796 -2.4741 36.0289 71.5432 -0.0005 67.6027 0.0003 8.7418 -2.5870 -6.2067 -0.0000 0.0000 -0.0000 -0.0000 0.0000 -0.0000
